<mxfile host="app.diagrams.net" modified="2023-08-04T15:14:55.206Z" agent="Mozilla/5.0 (Windows NT 10.0; Win64; x64) AppleWebKit/537.36 (KHTML, like Gecko) Chrome/115.0.0.0 Safari/537.36" etag="HugC1p0_0TUvZ_QWyOeG" version="21.6.6" type="github">
  <diagram id="R2lEEEUBdFMjLlhIrx00" name="Page-1">
    <mxGraphModel dx="1900" dy="534" grid="1" gridSize="10" guides="1" tooltips="1" connect="1" arrows="1" fold="1" page="1" pageScale="1" pageWidth="850" pageHeight="1100" math="0" shadow="0" extFonts="Permanent Marker^https://fonts.googleapis.com/css?family=Permanent+Marker">
      <root>
        <mxCell id="0" />
        <mxCell id="1" parent="0" />
        <mxCell id="BK7H0Mb5CM3IpL__lAi9-31" style="edgeStyle=orthogonalEdgeStyle;rounded=0;orthogonalLoop=1;jettySize=auto;html=1;exitX=1;exitY=0.5;exitDx=0;exitDy=0;entryX=0;entryY=0.5;entryDx=0;entryDy=0;endArrow=none;endFill=0;" edge="1" parent="1" source="BK7H0Mb5CM3IpL__lAi9-1" target="BK7H0Mb5CM3IpL__lAi9-29">
          <mxGeometry relative="1" as="geometry" />
        </mxCell>
        <mxCell id="BK7H0Mb5CM3IpL__lAi9-1" value="Dispositivo" style="whiteSpace=wrap;html=1;align=center;" vertex="1" parent="1">
          <mxGeometry x="50" y="190" width="70" height="30" as="geometry" />
        </mxCell>
        <mxCell id="BK7H0Mb5CM3IpL__lAi9-15" style="edgeStyle=orthogonalEdgeStyle;rounded=0;orthogonalLoop=1;jettySize=auto;html=1;exitX=0.5;exitY=1;exitDx=0;exitDy=0;entryX=0.5;entryY=0;entryDx=0;entryDy=0;endArrow=none;endFill=0;" edge="1" parent="1" source="BK7H0Mb5CM3IpL__lAi9-2" target="BK7H0Mb5CM3IpL__lAi9-14">
          <mxGeometry relative="1" as="geometry" />
        </mxCell>
        <mxCell id="BK7H0Mb5CM3IpL__lAi9-2" value="TipoDispositivo" style="whiteSpace=wrap;html=1;align=center;" vertex="1" parent="1">
          <mxGeometry x="40" width="90" height="30" as="geometry" />
        </mxCell>
        <mxCell id="BK7H0Mb5CM3IpL__lAi9-19" style="edgeStyle=orthogonalEdgeStyle;rounded=0;orthogonalLoop=1;jettySize=auto;html=1;exitX=0.5;exitY=1;exitDx=0;exitDy=0;entryX=0.5;entryY=0;entryDx=0;entryDy=0;endArrow=none;endFill=0;" edge="1" parent="1" source="BK7H0Mb5CM3IpL__lAi9-3" target="BK7H0Mb5CM3IpL__lAi9-17">
          <mxGeometry relative="1" as="geometry" />
        </mxCell>
        <mxCell id="BK7H0Mb5CM3IpL__lAi9-34" style="edgeStyle=orthogonalEdgeStyle;rounded=0;orthogonalLoop=1;jettySize=auto;html=1;exitX=0;exitY=0.5;exitDx=0;exitDy=0;entryX=0.5;entryY=1;entryDx=0;entryDy=0;endArrow=none;endFill=0;" edge="1" parent="1" source="BK7H0Mb5CM3IpL__lAi9-3" target="BK7H0Mb5CM3IpL__lAi9-33">
          <mxGeometry relative="1" as="geometry" />
        </mxCell>
        <mxCell id="BK7H0Mb5CM3IpL__lAi9-3" value="Empleado" style="whiteSpace=wrap;html=1;align=center;" vertex="1" parent="1">
          <mxGeometry x="50" y="420" width="70" height="30" as="geometry" />
        </mxCell>
        <mxCell id="BK7H0Mb5CM3IpL__lAi9-5" value="Tareas" style="whiteSpace=wrap;html=1;align=center;" vertex="1" parent="1">
          <mxGeometry x="800" y="535" width="50" height="30" as="geometry" />
        </mxCell>
        <mxCell id="BK7H0Mb5CM3IpL__lAi9-7" value="CostoTareas" style="shape=ext;margin=3;double=1;whiteSpace=wrap;html=1;align=center;" vertex="1" parent="1">
          <mxGeometry x="752.5" y="230" width="85" height="30" as="geometry" />
        </mxCell>
        <mxCell id="BK7H0Mb5CM3IpL__lAi9-8" value="" style="swimlane;startSize=0;" vertex="1" parent="1">
          <mxGeometry x="280" y="210" width="370" height="390" as="geometry" />
        </mxCell>
        <mxCell id="BK7H0Mb5CM3IpL__lAi9-9" value="MANTENIMIENTO" style="text;html=1;align=center;verticalAlign=middle;resizable=0;points=[];autosize=1;strokeColor=none;fillColor=none;" vertex="1" parent="BK7H0Mb5CM3IpL__lAi9-8">
          <mxGeometry x="260" y="360" width="120" height="30" as="geometry" />
        </mxCell>
        <mxCell id="BK7H0Mb5CM3IpL__lAi9-38" value="Service" style="whiteSpace=wrap;html=1;align=center;" vertex="1" parent="BK7H0Mb5CM3IpL__lAi9-8">
          <mxGeometry x="160" y="50" width="50" height="30" as="geometry" />
        </mxCell>
        <mxCell id="BK7H0Mb5CM3IpL__lAi9-39" value="Tecnico" style="whiteSpace=wrap;html=1;align=center;" vertex="1" parent="BK7H0Mb5CM3IpL__lAi9-8">
          <mxGeometry x="160" y="330" width="50" height="30" as="geometry" />
        </mxCell>
        <mxCell id="BK7H0Mb5CM3IpL__lAi9-42" style="edgeStyle=orthogonalEdgeStyle;rounded=0;orthogonalLoop=1;jettySize=auto;html=1;exitX=0.5;exitY=1;exitDx=0;exitDy=0;endArrow=none;endFill=0;" edge="1" parent="BK7H0Mb5CM3IpL__lAi9-8" source="BK7H0Mb5CM3IpL__lAi9-40" target="BK7H0Mb5CM3IpL__lAi9-39">
          <mxGeometry relative="1" as="geometry" />
        </mxCell>
        <mxCell id="BK7H0Mb5CM3IpL__lAi9-40" value="realiza_mantenimiento" style="shape=rhombus;perimeter=rhombusPerimeter;whiteSpace=wrap;html=1;align=center;" vertex="1" parent="BK7H0Mb5CM3IpL__lAi9-8">
          <mxGeometry x="115" y="160" width="140" height="70" as="geometry" />
        </mxCell>
        <mxCell id="BK7H0Mb5CM3IpL__lAi9-41" style="edgeStyle=orthogonalEdgeStyle;rounded=0;orthogonalLoop=1;jettySize=auto;html=1;exitX=0.5;exitY=1;exitDx=0;exitDy=0;entryX=0.5;entryY=0;entryDx=0;entryDy=0;endArrow=none;endFill=0;" edge="1" parent="BK7H0Mb5CM3IpL__lAi9-8" source="BK7H0Mb5CM3IpL__lAi9-38" target="BK7H0Mb5CM3IpL__lAi9-40">
          <mxGeometry relative="1" as="geometry" />
        </mxCell>
        <mxCell id="BK7H0Mb5CM3IpL__lAi9-12" style="edgeStyle=orthogonalEdgeStyle;rounded=0;orthogonalLoop=1;jettySize=auto;html=1;exitX=0.5;exitY=0;exitDx=0;exitDy=0;entryX=0.5;entryY=1;entryDx=0;entryDy=0;endArrow=none;endFill=0;" edge="1" parent="1" source="BK7H0Mb5CM3IpL__lAi9-11" target="BK7H0Mb5CM3IpL__lAi9-1">
          <mxGeometry relative="1" as="geometry" />
        </mxCell>
        <mxCell id="BK7H0Mb5CM3IpL__lAi9-13" style="edgeStyle=orthogonalEdgeStyle;rounded=0;orthogonalLoop=1;jettySize=auto;html=1;exitX=0.5;exitY=1;exitDx=0;exitDy=0;entryX=0.5;entryY=0;entryDx=0;entryDy=0;endArrow=none;endFill=0;" edge="1" parent="1" source="BK7H0Mb5CM3IpL__lAi9-11" target="BK7H0Mb5CM3IpL__lAi9-3">
          <mxGeometry relative="1" as="geometry" />
        </mxCell>
        <mxCell id="BK7H0Mb5CM3IpL__lAi9-11" value="dispo_asigna" style="shape=rhombus;perimeter=rhombusPerimeter;whiteSpace=wrap;html=1;align=center;" vertex="1" parent="1">
          <mxGeometry x="45" y="290" width="80" height="50" as="geometry" />
        </mxCell>
        <mxCell id="BK7H0Mb5CM3IpL__lAi9-16" style="edgeStyle=orthogonalEdgeStyle;rounded=0;orthogonalLoop=1;jettySize=auto;html=1;exitX=0.5;exitY=1;exitDx=0;exitDy=0;endArrow=none;endFill=0;" edge="1" parent="1" source="BK7H0Mb5CM3IpL__lAi9-14" target="BK7H0Mb5CM3IpL__lAi9-1">
          <mxGeometry relative="1" as="geometry" />
        </mxCell>
        <mxCell id="BK7H0Mb5CM3IpL__lAi9-14" value="identifica" style="shape=rhombus;perimeter=rhombusPerimeter;whiteSpace=wrap;html=1;align=center;" vertex="1" parent="1">
          <mxGeometry x="50" y="90" width="70" height="40" as="geometry" />
        </mxCell>
        <mxCell id="BK7H0Mb5CM3IpL__lAi9-18" style="edgeStyle=orthogonalEdgeStyle;rounded=0;orthogonalLoop=1;jettySize=auto;html=1;exitX=1;exitY=0.5;exitDx=0;exitDy=0;entryX=0;entryY=0.5;entryDx=0;entryDy=0;endArrow=none;endFill=0;" edge="1" parent="1" source="BK7H0Mb5CM3IpL__lAi9-17" target="BK7H0Mb5CM3IpL__lAi9-39">
          <mxGeometry relative="1" as="geometry" />
        </mxCell>
        <mxCell id="BK7H0Mb5CM3IpL__lAi9-17" value="finaliza_service" style="shape=rhombus;perimeter=rhombusPerimeter;whiteSpace=wrap;html=1;align=center;" vertex="1" parent="1">
          <mxGeometry x="25" y="540" width="120" height="60" as="geometry" />
        </mxCell>
        <mxCell id="BK7H0Mb5CM3IpL__lAi9-21" style="edgeStyle=orthogonalEdgeStyle;rounded=0;orthogonalLoop=1;jettySize=auto;html=1;exitX=0.5;exitY=1;exitDx=0;exitDy=0;entryX=1;entryY=0.5;entryDx=0;entryDy=0;endArrow=none;endFill=0;" edge="1" parent="1" source="BK7H0Mb5CM3IpL__lAi9-20" target="BK7H0Mb5CM3IpL__lAi9-3">
          <mxGeometry relative="1" as="geometry" />
        </mxCell>
        <mxCell id="BK7H0Mb5CM3IpL__lAi9-43" style="edgeStyle=orthogonalEdgeStyle;rounded=0;orthogonalLoop=1;jettySize=auto;html=1;exitX=0.5;exitY=0;exitDx=0;exitDy=0;entryX=0;entryY=0.5;entryDx=0;entryDy=0;endArrow=none;endFill=0;" edge="1" parent="1" source="BK7H0Mb5CM3IpL__lAi9-20" target="BK7H0Mb5CM3IpL__lAi9-38">
          <mxGeometry relative="1" as="geometry" />
        </mxCell>
        <mxCell id="BK7H0Mb5CM3IpL__lAi9-20" value="pedido_service" style="shape=rhombus;perimeter=rhombusPerimeter;whiteSpace=wrap;html=1;align=center;" vertex="1" parent="1">
          <mxGeometry x="150" y="340" width="100" height="60" as="geometry" />
        </mxCell>
        <mxCell id="BK7H0Mb5CM3IpL__lAi9-24" style="edgeStyle=orthogonalEdgeStyle;rounded=0;orthogonalLoop=1;jettySize=auto;html=1;exitX=1;exitY=0.5;exitDx=0;exitDy=0;entryX=0;entryY=0.5;entryDx=0;entryDy=0;endArrow=none;endFill=0;" edge="1" parent="1" source="BK7H0Mb5CM3IpL__lAi9-23" target="BK7H0Mb5CM3IpL__lAi9-5">
          <mxGeometry relative="1" as="geometry" />
        </mxCell>
        <mxCell id="BK7H0Mb5CM3IpL__lAi9-25" style="edgeStyle=orthogonalEdgeStyle;rounded=0;orthogonalLoop=1;jettySize=auto;html=1;exitX=0;exitY=0.5;exitDx=0;exitDy=0;entryX=1;entryY=0.5;entryDx=0;entryDy=0;endArrow=none;endFill=0;" edge="1" parent="1" source="BK7H0Mb5CM3IpL__lAi9-23" target="BK7H0Mb5CM3IpL__lAi9-39">
          <mxGeometry relative="1" as="geometry" />
        </mxCell>
        <mxCell id="BK7H0Mb5CM3IpL__lAi9-23" value="tecnico_realiza" style="shape=rhombus;perimeter=rhombusPerimeter;whiteSpace=wrap;html=1;align=center;" vertex="1" parent="1">
          <mxGeometry x="680" y="525" width="90" height="50" as="geometry" />
        </mxCell>
        <mxCell id="BK7H0Mb5CM3IpL__lAi9-27" style="edgeStyle=orthogonalEdgeStyle;rounded=0;orthogonalLoop=1;jettySize=auto;html=1;exitX=0.5;exitY=1;exitDx=0;exitDy=0;entryX=0;entryY=0;entryDx=0;entryDy=0;endArrow=none;endFill=0;" edge="1" parent="1" source="BK7H0Mb5CM3IpL__lAi9-26" target="BK7H0Mb5CM3IpL__lAi9-5">
          <mxGeometry relative="1" as="geometry" />
        </mxCell>
        <mxCell id="BK7H0Mb5CM3IpL__lAi9-28" style="edgeStyle=orthogonalEdgeStyle;rounded=0;orthogonalLoop=1;jettySize=auto;html=1;exitX=0.5;exitY=0;exitDx=0;exitDy=0;entryX=0.618;entryY=1;entryDx=0;entryDy=0;entryPerimeter=0;endArrow=none;endFill=0;" edge="1" parent="1" source="BK7H0Mb5CM3IpL__lAi9-26" target="BK7H0Mb5CM3IpL__lAi9-7">
          <mxGeometry relative="1" as="geometry" />
        </mxCell>
        <mxCell id="BK7H0Mb5CM3IpL__lAi9-26" value="registra_costo" style="shape=rhombus;double=1;perimeter=rhombusPerimeter;whiteSpace=wrap;html=1;align=center;" vertex="1" parent="1">
          <mxGeometry x="760" y="350" width="90" height="50" as="geometry" />
        </mxCell>
        <mxCell id="BK7H0Mb5CM3IpL__lAi9-32" style="edgeStyle=orthogonalEdgeStyle;rounded=0;orthogonalLoop=1;jettySize=auto;html=1;exitX=1;exitY=0.5;exitDx=0;exitDy=0;entryX=0;entryY=0.5;entryDx=0;entryDy=0;endArrow=none;endFill=0;" edge="1" parent="1" source="BK7H0Mb5CM3IpL__lAi9-29" target="BK7H0Mb5CM3IpL__lAi9-30">
          <mxGeometry relative="1" as="geometry">
            <Array as="points">
              <mxPoint x="180" y="150" />
              <mxPoint x="300" y="150" />
              <mxPoint x="300" y="35" />
            </Array>
          </mxGeometry>
        </mxCell>
        <mxCell id="BK7H0Mb5CM3IpL__lAi9-29" value="D" style="ellipse;whiteSpace=wrap;html=1;" vertex="1" parent="1">
          <mxGeometry x="150" y="195" width="30" height="20" as="geometry" />
        </mxCell>
        <mxCell id="BK7H0Mb5CM3IpL__lAi9-46" style="edgeStyle=orthogonalEdgeStyle;rounded=0;orthogonalLoop=1;jettySize=auto;html=1;exitX=0.5;exitY=1;exitDx=0;exitDy=0;entryX=0.5;entryY=0;entryDx=0;entryDy=0;endArrow=none;endFill=0;" edge="1" parent="1" source="BK7H0Mb5CM3IpL__lAi9-30" target="BK7H0Mb5CM3IpL__lAi9-44">
          <mxGeometry relative="1" as="geometry" />
        </mxCell>
        <mxCell id="BK7H0Mb5CM3IpL__lAi9-30" value="Muleto" style="whiteSpace=wrap;html=1;align=center;" vertex="1" parent="1">
          <mxGeometry x="420" y="20" width="50" height="30" as="geometry" />
        </mxCell>
        <mxCell id="BK7H0Mb5CM3IpL__lAi9-35" style="edgeStyle=orthogonalEdgeStyle;rounded=0;orthogonalLoop=1;jettySize=auto;html=1;exitX=0.5;exitY=0;exitDx=0;exitDy=0;entryX=0;entryY=0.5;entryDx=0;entryDy=0;endArrow=none;endFill=0;" edge="1" parent="1" source="BK7H0Mb5CM3IpL__lAi9-33" target="BK7H0Mb5CM3IpL__lAi9-1">
          <mxGeometry relative="1" as="geometry" />
        </mxCell>
        <mxCell id="BK7H0Mb5CM3IpL__lAi9-33" value="empleado_devuelve" style="shape=rhombus;perimeter=rhombusPerimeter;whiteSpace=wrap;html=1;align=center;" vertex="1" parent="1">
          <mxGeometry x="-160" y="290" width="120" height="60" as="geometry" />
        </mxCell>
        <mxCell id="BK7H0Mb5CM3IpL__lAi9-45" style="edgeStyle=orthogonalEdgeStyle;rounded=0;orthogonalLoop=1;jettySize=auto;html=1;exitX=0.5;exitY=1;exitDx=0;exitDy=0;entryX=0;entryY=0;entryDx=0;entryDy=0;endArrow=none;endFill=0;" edge="1" parent="1" source="BK7H0Mb5CM3IpL__lAi9-44" target="BK7H0Mb5CM3IpL__lAi9-38">
          <mxGeometry relative="1" as="geometry" />
        </mxCell>
        <mxCell id="BK7H0Mb5CM3IpL__lAi9-44" value="service_asigna" style="shape=rhombus;perimeter=rhombusPerimeter;whiteSpace=wrap;html=1;align=center;" vertex="1" parent="1">
          <mxGeometry x="400" y="100" width="90" height="50" as="geometry" />
        </mxCell>
        <mxCell id="BK7H0Mb5CM3IpL__lAi9-47" value="&lt;u&gt;nroSerie&lt;/u&gt;&lt;br&gt;marca&lt;br&gt;modelo&lt;br&gt;fechaAlta&lt;br&gt;fechaBaja" style="ellipse;whiteSpace=wrap;html=1;align=center;" vertex="1" parent="1">
          <mxGeometry x="-40" y="120" width="110" height="80" as="geometry" />
        </mxCell>
        <mxCell id="BK7H0Mb5CM3IpL__lAi9-48" value="&lt;u&gt;codigo&lt;/u&gt;&lt;br&gt;descripcion" style="ellipse;whiteSpace=wrap;html=1;align=center;" vertex="1" parent="1">
          <mxGeometry x="120" y="15" width="80" height="40" as="geometry" />
        </mxCell>
        <mxCell id="BK7H0Mb5CM3IpL__lAi9-49" value="fechaAsignacion" style="ellipse;whiteSpace=wrap;html=1;align=center;" vertex="1" parent="1">
          <mxGeometry x="90" y="270" width="100" height="40" as="geometry" />
        </mxCell>
        <mxCell id="BK7H0Mb5CM3IpL__lAi9-50" value="fechaDevolucion&lt;br&gt;motivo" style="ellipse;whiteSpace=wrap;html=1;align=center;" vertex="1" parent="1">
          <mxGeometry x="-250" y="310" width="100" height="40" as="geometry" />
        </mxCell>
        <mxCell id="BK7H0Mb5CM3IpL__lAi9-51" value="&lt;u&gt;CUIL&lt;/u&gt;&lt;br&gt;nombre&lt;br&gt;apellido&lt;br&gt;email&lt;br&gt;fechaNacimiento" style="ellipse;whiteSpace=wrap;html=1;align=center;" vertex="1" parent="1">
          <mxGeometry x="-60" y="440" width="145" height="95" as="geometry" />
        </mxCell>
        <mxCell id="BK7H0Mb5CM3IpL__lAi9-52" value="fechaPedido&lt;br&gt;horaPedido" style="ellipse;whiteSpace=wrap;html=1;align=center;" vertex="1" parent="1">
          <mxGeometry x="210" y="380" width="100" height="40" as="geometry" />
        </mxCell>
        <mxCell id="BK7H0Mb5CM3IpL__lAi9-53" value="causaService&lt;br&gt;fechaFin&lt;br&gt;horaFin" style="ellipse;whiteSpace=wrap;html=1;align=center;" vertex="1" parent="1">
          <mxGeometry x="35" y="600" width="110" height="50" as="geometry" />
        </mxCell>
        <mxCell id="BK7H0Mb5CM3IpL__lAi9-54" value="&lt;u&gt;codTarea&lt;/u&gt;&lt;br&gt;descripcion" style="ellipse;whiteSpace=wrap;html=1;align=center;" vertex="1" parent="1">
          <mxGeometry x="810" y="565" width="90" height="40" as="geometry" />
        </mxCell>
      </root>
    </mxGraphModel>
  </diagram>
</mxfile>
